<?xml version="1.0" encoding="UTF-8" standalone="no"?>
<!-- Created with Inkscape (http://www.inkscape.org/) -->

<svg
   xmlns:dc="http://purl.org/dc/elements/1.1/"
   xmlns:cc="http://creativecommons.org/ns#"
   xmlns:rdf="http://www.w3.org/1999/02/22-rdf-syntax-ns#"
   xmlns:svg="http://www.w3.org/2000/svg"
   xmlns="http://www.w3.org/2000/svg"
   xmlns:sodipodi="http://sodipodi.sourceforge.net/DTD/sodipodi-0.dtd"
   xmlns:inkscape="http://www.inkscape.org/namespaces/inkscape"
   width="192"
   height="192"
   viewBox="0 0 50.799999 50.800001"
   version="1.1"
   id="svg1390"
   inkscape:version="0.92.5 (2060ec1f9f, 2020-04-08)"
   sodipodi:docname="a.svg">
  <defs
     id="defs1384" />
  <sodipodi:namedview
     id="base"
     pagecolor="#ffffff"
     bordercolor="#666666"
     borderopacity="1.0"
     inkscape:pageopacity="0.0"
     inkscape:pageshadow="2"
     inkscape:zoom="0.85994497"
     inkscape:cx="102.16702"
     inkscape:cy="220.44846"
     inkscape:document-units="mm"
     inkscape:current-layer="layer1"
     showgrid="false"
     units="px"
     inkscape:window-width="1366"
     inkscape:window-height="704"
     inkscape:window-x="0"
     inkscape:window-y="27"
     inkscape:window-maximized="1" />
  <metadata
     id="metadata1387">
    <rdf:RDF>
      <cc:Work
         rdf:about="">
        <dc:format>image/svg+xml</dc:format>
        <dc:type
           rdf:resource="http://purl.org/dc/dcmitype/StillImage" />
        <dc:title></dc:title>
      </cc:Work>
    </rdf:RDF>
  </metadata>
  <g
     inkscape:label="Layer 1"
     inkscape:groupmode="layer"
     id="layer1"
     transform="translate(0,-246.19998)">
    <g
       style="display:inline"
       id="g7540"
       transform="matrix(0.58940718,0,0,0.58940718,-324.26162,189.78872)"
       inkscape:export-xdpi="90"
       inkscape:export-ydpi="90">
      <path
         id="path6789-4"
         transform="scale(0.26458333)"
         d="m 2242.3516,411.50586 a 113.10147,113.10147 0 0 0 -8,0.2832 113.10147,113.10147 0 0 0 -11.2227,1.36328 113.10147,113.10147 0 0 0 -3.1562,0.70704 113.10147,113.10147 0 0 0 -7.8731,1.76757 113.10147,113.10147 0 0 0 -3.5234,1.17188 113.10147,113.10147 0 0 0 -7.2051,2.39453 113.10147,113.10147 0 0 0 -10.3203,4.61719 113.10147,113.10147 0 0 0 -5.4707,3.13867 113.10147,113.10147 0 0 0 -4.336,2.48633 113.10147,113.10147 0 0 0 -6.5605,4.6914 h 21.6992 a 113.10147,113.10147 0 0 1 5.2305,3.97657 113.10147,113.10147 0 0 1 8.2734,7.70507 113.10147,113.10147 0 0 1 0,0.002 113.10147,113.10147 0 0 0 -8.2734,-7.70508 113.10147,113.10147 0 0 0 -5.2305,-3.97656 l -21.6992,-0.002 a 113.10147,113.10147 0 0 0 -0.1914,0.13672 v 0.0371 a 113.10147,113.10147 0 0 0 -0.027,-0.0176 113.10147,113.10147 0 0 0 -2.416,1.72852 113.10147,113.10147 0 0 0 -8.4941,7.46094 113.10147,113.10147 0 0 0 -7.7051,8.27343 113.10147,113.10147 0 0 0 -3.8008,5 113.10147,113.10147 0 0 0 -3.041,4 113.10147,113.10147 0 0 0 -5.9101,9.63672 113.10147,113.10147 0 0 0 -4.918,10.18164 113.10147,113.10147 0 0 0 -3.877,10.61914 113.10147,113.10147 0 0 0 -2.7968,10.95313 113.10147,113.10147 0 0 0 -1.6895,11.17969 113.10147,113.10147 0 0 0 -0.5644,11.29101 v 45.24024 22.62109 22.44336 13.29101 -13.29101 a 113.10147,113.10147 0 0 1 -0.014,-0.0117 v -22.43164 a 45.24059,45.240586 0 0 1 -0.2265,4.51563 45.24059,45.240586 0 0 1 -0.6758,4.47265 45.24059,45.240586 0 0 1 -1.1192,4.38086 45.24059,45.240586 0 0 1 -1.5507,4.24805 45.24059,45.240586 0 0 1 -0.7422,1.53711 45.24059,45.240586 0 0 1 -1.2246,2.53515 45.24059,45.240586 0 0 1 -2.3633,3.85547 45.24059,45.240586 0 0 1 -2.7363,3.59961 45.24059,45.240586 0 0 1 -0.7266,0.7793 45.24059,45.240586 0 0 1 -2.3555,2.5293 45.24059,45.240586 0 0 1 -3.3984,2.98437 45.24059,45.240586 0 0 1 -3.6777,2.63086 45.24059,45.240586 0 0 1 -3.9219,2.25 45.24059,45.240586 0 0 1 -3.1543,1.41211 45.24059,45.240586 0 0 1 -0.9746,0.43555 45.24059,45.240586 0 0 1 -4.291,1.42578 45.24059,45.240586 0 0 1 -3.1915,0.71679 45.24059,45.240586 0 0 1 -1.2207,0.27539 45.24059,45.240586 0 0 1 -4.4902,0.54493 45.24059,45.240586 0 0 1 -3.1992,0.11328 l 22.6348,-0.002 a 113.10147,113.10147 0 0 0 8.0019,-0.2832 113.10147,113.10147 0 0 0 2.5996,-0.3164 113.10147,113.10147 0 0 0 0.2285,0.0352 113.10147,113.10147 0 0 1 -0.2285,-0.0332 113.10147,113.10147 0 0 1 -2.5996,0.3164 113.10147,113.10147 0 0 1 -8.0019,0.28321 l 22.1211,-0.002 a 113.10147,113.10147 0 0 0 0.4843,-0.0195 v 0.002 a 113.10147,113.10147 0 0 0 0.016,0 45.24059,45.240586 0 0 0 0,0.0195 h 45.2402 a 113.10147,113.10147 0 0 1 -11.291,-0.56446 113.10147,113.10147 0 0 1 -11.1778,-1.68945 113.10147,113.10147 0 0 1 -0.6269,-0.16015 113.10147,113.10147 0 0 1 -3.4199,0.76757 113.10147,113.10147 0 0 1 -11.2246,1.36328 113.10147,113.10147 0 0 1 -7.4981,0.26563 v -0.002 a 113.10147,113.10147 0 0 0 7.4981,-0.26563 113.10147,113.10147 0 0 0 11.2246,-1.36328 113.10147,113.10147 0 0 0 3.4199,-0.76758 113.10147,113.10147 0 0 0 0.6269,0.16016 113.10147,113.10147 0 0 0 11.1778,1.68945 113.10147,113.10147 0 0 0 11.291,0.56445 113.10147,113.10147 0 0 0 8,-0.2832 113.10147,113.10147 0 0 0 2.8789,-0.34961 113.10147,113.10147 0 0 0 8.3457,-1.01367 113.10147,113.10147 0 0 0 11.0312,-2.47461 113.10147,113.10147 0 0 0 3.5215,-1.16992 113.10147,113.10147 0 0 0 7.2071,-2.39649 113.10147,113.10147 0 0 0 3.2695,-1.46289 113.10147,113.10147 0 0 0 7.0488,-3.15429 113.10147,113.10147 0 0 0 9.8067,-5.625 113.10147,113.10147 0 0 0 9.1953,-6.57618 113.10147,113.10147 0 0 0 8.4941,-7.46093 113.10147,113.10147 0 0 0 7.707,-8.27344 113.10147,113.10147 0 0 0 3.8008,-5 h 0.1758 v -0.23047 a 113.10147,113.10147 0 0 0 2.8652,-3.76953 113.10147,113.10147 0 0 0 0.8575,-1.39844 113.10147,113.10147 0 0 0 5.0507,-8.23828 113.10147,113.10147 0 0 0 4.3399,-8.98437 113.10147,113.10147 0 0 0 0.5781,-1.19727 113.10147,113.10147 0 0 0 3.877,-10.61914 113.10147,113.10147 0 0 0 2.7968,-10.95313 113.10147,113.10147 0 0 0 1.6895,-11.17968 113.10147,113.10147 0 0 0 0.3379,-6.77344 45.24059,45.240586 0 0 0 0,-0.002 113.10147,113.10147 0 0 0 0.2266,-4.51563 v -28.72851 -16.51172 h -9.5918 -6.9004 -6.127 -22.6211 a 45.24059,45.240586 0 0 0 -3.2012,0.11328 45.24059,45.240586 0 0 0 -4.4882,0.54492 45.24059,45.240586 0 0 0 -1.9141,0.42969 45.24059,45.240586 0 0 0 -2.498,0.56054 45.24059,45.240586 0 0 0 -4.2911,1.42579 45.24059,45.240586 0 0 0 -4.1289,1.84765 45.24059,45.240586 0 0 0 -2.0996,1.20508 45.24059,45.240586 0 0 0 -1.8222,1.04492 45.24059,45.240586 0 0 0 -3.6778,2.63086 45.24059,45.240586 0 0 0 -0.2656,0.23242 45.24059,45.240586 0 0 0 -3.1328,2.75196 45.24059,45.240586 0 0 0 -3.082,3.30859 45.24059,45.240586 0 0 0 -2.7364,3.59961 45.24059,45.240586 0 0 0 -1.7929,2.92383 45.24059,45.240586 0 0 0 -0.5723,0.93164 45.24059,45.240586 0 0 0 -0.086,0.17773 45.24059,45.240586 0 0 0 -1.8809,3.89453 45.24059,45.240586 0 0 0 -1.5508,4.24805 45.24059,45.240586 0 0 0 -1.1172,4.38086 45.24059,45.240586 0 0 0 -0.6758,4.47266 45.24059,45.240586 0 0 0 -0.2265,4.51562 v 45.24024 h 13.1133 9.5058 12.1641 a 45.24059,45.240586 0 0 1 -1.7949,2.92578 45.24059,45.240586 0 0 1 -2.7364,3.59961 45.24059,45.240586 0 0 1 -3.082,3.30859 45.24059,45.240586 0 0 1 -3.3965,2.98438 45.24059,45.240586 0 0 1 -1.1543,0.82617 45.24059,45.240586 0 0 1 -2.5254,1.80469 45.24059,45.240586 0 0 1 -2.3027,1.32031 45.24059,45.240586 0 0 1 -1.6191,0.92969 45.24059,45.240586 0 0 1 -4.129,1.84765 45.24059,45.240586 0 0 1 -4.291,1.42578 45.24059,45.240586 0 0 1 -4.4121,0.99024 45.24059,45.240586 0 0 1 -3.3222,0.40234 45.24059,45.240586 0 0 1 -1.1661,0.14258 45.24059,45.240586 0 0 1 -3.2011,0.11328 h -18.2715 v -3.88867 -18.73242 -45.24024 a 67.860884,67.860884 0 0 1 0.3398,-6.77539 67.860884,67.860884 0 0 1 1.0137,-6.70703 67.860884,67.860884 0 0 1 1.6426,-6.43359 67.860884,67.860884 0 0 1 0.033,-0.13868 67.860884,67.860884 0 0 1 0.9375,-2.5664 v 0 a 67.860884,67.860884 0 0 1 1.3887,-3.80469 67.860884,67.860884 0 0 1 2.9512,-6.10937 67.860884,67.860884 0 0 1 3.5449,-5.78125 67.860884,67.860884 0 0 1 4.1055,-5.4004 67.860884,67.860884 0 0 1 4.623,-4.96289 67.860884,67.860884 0 0 1 5.0957,-4.47851 67.860884,67.860884 0 0 1 4.3926,-3.14063 67.860884,67.860884 0 0 1 1.125,-0.80468 67.860884,67.860884 0 0 1 5.8848,-3.375 67.860884,67.860884 0 0 1 6.1914,-2.76953 67.860884,67.860884 0 0 1 1.9687,-0.6543 67.860884,67.860884 0 0 1 1.7715,-0.58985 67.860884,67.860884 0 0 1 2.6973,-0.89648 67.860884,67.860884 0 0 1 6.6191,-1.48437 67.860884,67.860884 0 0 1 6.7324,-0.81836 67.860884,67.860884 0 0 1 4.8008,-0.16993 h 22.4824 a 113.10147,113.10147 0 0 1 0.1387,0.19532 113.10147,113.10147 0 0 1 0.01,0.0117 45.24059,45.240586 0 0 1 -0.01,-0.20507 v -0.002 h 22.4824 45.2403 22.7578 v -45.24023 0 h -45.2383 -45.2382 -22.6231 z m -113.1153,226.18555 a 113.10147,113.10147 0 0 1 -0.4843,0.0195 h 0.4843 z m 135.8203,-223.8711 a 45.24059,45.240586 0 0 0 0.029,0.83985 45.24059,45.240586 0 0 1 -0.031,-0.83985 z m -36.3398,11.53125 a 113.10147,113.10147 0 0 1 5.9746,3.66406 113.10147,113.10147 0 0 0 -5.9746,-3.66406 z m 42.3867,8.73633 v 0 a 45.24059,45.240586 0 0 0 -0.5938,0.96875 45.24059,45.240586 0 0 0 -1.2207,2.52734 45.24059,45.240586 0 0 1 0,-0.002 45.24059,45.240586 0 0 1 1.2207,-2.52539 45.24059,45.240586 0 0 1 0.5937,-0.96875 z m 6.6582,8.89063 a 45.24059,45.240586 0 0 0 1.7129,1.5957 45.24059,45.240586 0 0 1 -1.7129,-1.5957 z m 27.9356,13.49609 a 45.24059,45.240586 0 0 0 4.3007,0.2168 45.24059,45.240586 0 0 1 -4.3007,-0.2168 z m -83.7891,56.15039 a 45.24059,45.240586 0 0 1 1.7129,1.5957 45.24059,45.240586 0 0 0 -1.7129,-1.5957 z m -72.3652,21.23242 a 45.24059,45.240586 0 0 0 -1.1172,4.38281 45.24059,45.240586 0 0 1 1.1172,-4.38281 z m -1.793,8.85352 a 45.24059,45.240586 0 0 0 -0.2266,4.51758 45.24059,45.240586 0 0 1 0.2266,-4.51758 z m -63.7539,4.51758 a 45.24059,45.240586 0 0 1 2.4512,0.12109 113.10147,113.10147 0 0 1 -0.027,-0.12109 z m 149.3691,21.71679 a 45.24059,45.240586 0 0 0 3.8848,0.58789 45.24059,45.240586 0 0 1 -3.8848,-0.58789 z m -29.7285,34.16407 a 45.24059,45.240586 0 0 1 1.7149,1.5957 45.24059,45.240586 0 0 0 -1.7149,-1.5957 z m 16.0117,32.21093 a 113.10147,113.10147 0 0 1 -0.1582,0.0352 113.10147,113.10147 0 0 0 0.1602,0.041 45.24059,45.240586 0 0 0 0,-0.0762 z"
         style="display:inline;opacity:1;fill:#008000;fill-opacity:1;fill-rule:nonzero;stroke:none;stroke-width:4.75236082;stroke-linejoin:bevel;stroke-miterlimit:4;stroke-dasharray:none;stroke-dashoffset:0;stroke-opacity:1"
         inkscape:connector-curvature="0" />
      <path
         id="path6785-2"
         transform="scale(0.26458333)"
         d="m 2310.207,479.36719 v 22.61914 22.40039 0.37695 a 113.10147,113.10147 0 0 1 -0.332,6.61914 113.10147,113.10147 0 0 1 -0.2266,4.51563 113.10147,113.10147 0 0 1 -1.6894,11.17968 113.10147,113.10147 0 0 1 -2.7969,10.95313 113.10147,113.10147 0 0 1 -3.875,10.61914 113.10147,113.10147 0 0 1 -4.918,10.18164 113.10147,113.10147 0 0 1 -5.9101,9.63672 113.10147,113.10147 0 0 1 -3.041,4 113.10147,113.10147 0 0 1 -3.8008,5 113.10147,113.10147 0 0 1 -7.7051,8.27344 113.10147,113.10147 0 0 1 -8.4941,7.46093 113.10147,113.10147 0 0 1 -9.1953,6.57618 113.10147,113.10147 0 0 1 -9.8067,5.625 113.10147,113.10147 0 0 1 -10.3203,4.61718 113.10147,113.10147 0 0 1 -10.7285,3.56641 113.10147,113.10147 0 0 1 -7.7188,1.73242 45.240589,45.240585 0 0 1 0,0.0762 113.10147,113.10147 0 0 1 -0.1602,-0.041 113.10147,113.10147 0 0 1 -3.1543,0.70703 113.10147,113.10147 0 0 1 -11.2226,1.36328 113.10147,113.10147 0 0 1 -8,0.2832 h 22.6191 22.6211 a 113.10147,113.10147 0 0 0 8,-0.2832 113.10147,113.10147 0 0 0 11.2227,-1.36328 113.10147,113.10147 0 0 0 11.0312,-2.47461 113.10147,113.10147 0 0 0 10.7285,-3.56641 113.10147,113.10147 0 0 0 10.3203,-4.61718 113.10147,113.10147 0 0 0 9.8067,-5.625 113.10147,113.10147 0 0 0 9.1953,-6.57618 113.10147,113.10147 0 0 0 8.4941,-7.46093 113.10147,113.10147 0 0 0 7.7051,-8.27344 113.10147,113.10147 0 0 0 3.8008,-5 113.10147,113.10147 0 0 0 3.041,-4 113.10147,113.10147 0 0 0 5.9102,-9.63672 113.10147,113.10147 0 0 0 4.3398,-8.98437 113.10147,113.10147 0 0 0 0.5781,-1.19727 113.10147,113.10147 0 0 0 3.877,-10.61914 113.10147,113.10147 0 0 0 2.7969,-10.95313 113.10147,113.10147 0 0 0 1.6894,-11.17968 113.10147,113.10147 0 0 0 0.5645,-11.29102 v -45.24023 h -6.1094 -3.4824 z"
         style="display:inline;opacity:1;fill:#008000;fill-opacity:1;fill-rule:nonzero;stroke:none;stroke-width:4.75236082;stroke-linejoin:bevel;stroke-miterlimit:4;stroke-dasharray:none;stroke-dashoffset:0;stroke-opacity:1"
         inkscape:connector-curvature="0" />
    </g>
  </g>
</svg>
