<?xml version="1.0" encoding="UTF-8" standalone="no"?>
<!-- Generator: Adobe Illustrator 19.0.0, SVG Export Plug-In . SVG Version: 6.00 Build 0)  -->

<svg
   xmlns:dc="http://purl.org/dc/elements/1.1/"
   xmlns:cc="http://creativecommons.org/ns#"
   xmlns:rdf="http://www.w3.org/1999/02/22-rdf-syntax-ns#"
   xmlns:svg="http://www.w3.org/2000/svg"
   xmlns="http://www.w3.org/2000/svg"
   xmlns:sodipodi="http://sodipodi.sourceforge.net/DTD/sodipodi-0.dtd"
   xmlns:inkscape="http://www.inkscape.org/namespaces/inkscape"
   version="1.1"
   id="Capa_1"
   x="0px"
   y="0px"
   viewBox="0 0 512 512"
   style="enable-background:new 0 0 512 512;"
   xml:space="preserve"
   sodipodi:docname="home.svg"
   inkscape:version="0.92.5 (2060ec1f9f, 2020-04-08)"><metadata
   id="metadata341"><rdf:RDF><cc:Work
       rdf:about=""><dc:format>image/svg+xml</dc:format><dc:type
         rdf:resource="http://purl.org/dc/dcmitype/StillImage" /></cc:Work></rdf:RDF></metadata><defs
   id="defs339" /><sodipodi:namedview
   pagecolor="#ffffff"
   bordercolor="#666666"
   borderopacity="1"
   objecttolerance="10"
   gridtolerance="10"
   guidetolerance="10"
   inkscape:pageopacity="0"
   inkscape:pageshadow="2"
   inkscape:window-width="1366"
   inkscape:window-height="704"
   id="namedview337"
   showgrid="false"
   inkscape:zoom="0.87686157"
   inkscape:cx="256"
   inkscape:cy="256"
   inkscape:window-x="0"
   inkscape:window-y="27"
   inkscape:window-maximized="1"
   inkscape:current-layer="Capa_1" />
<g
   id="g304"
   transform="matrix(0.83007813,0,0,0.83007813,43.499999,43.499999)">
	<g
   id="g4">
		<circle
   style="fill:#fff9bb"
   cx="256"
   cy="256"
   r="256"
   id="circle2" />
	</g>
	<g
   id="g8">
		<path
   style="fill:#ffea96"
   d="M 9.828,326.205 C 42.414,330.871 79,336 79,336 l 45,-42.75 c -42.939,0 -89.253,-25.338 -123.809,-29.685 0.631,21.666 3.945,42.647 9.637,62.64 z"
   id="path6"
   inkscape:connector-curvature="0" />
	</g>
	<g
   id="g12">
		<path
   style="fill:#ffea96"
   d="m 247.333,306.5 c -55.5,0 193.167,23.15 193.167,23.15 l 62.346,-5.817 c 4.568,-16.658 7.503,-33.983 8.605,-51.814 C 440.667,272.02 332,306.5 247.333,306.5 Z"
   id="path10"
   inkscape:connector-curvature="0" />
	</g>
	<g
   id="g16">
		<path
   style="fill:#d6eb76"
   d="M 4.56,304 C 27.036,422.43 131.029,512 256,512 380.971,512 484.965,422.43 507.44,304 Z"
   id="path14"
   inkscape:connector-curvature="0" />
	</g>
	<g
   id="g20">
		<path
   style="fill:#d6eb76"
   d="m 334.729,278.132 c 0,-11.048 -8.818,-54.132 -14.395,-54.132 -0.317,0 -0.646,0.176 -0.982,0.442 -0.116,0.092 -0.236,0.234 -0.354,0.356 -0.222,0.229 -0.444,0.491 -0.67,0.817 -0.147,0.208 -0.292,0.431 -0.439,0.676 -0.208,0.348 -0.419,0.744 -0.63,1.162 -0.154,0.302 -0.305,0.58 -0.459,0.916 -0.022,0.049 -0.044,0.085 -0.068,0.136 0.002,0.003 0.004,0.008 0.004,0.008 -5.122,11.315 -10.797,40.755 -10.797,49.619 0,9.75 5.023,15.199 11.667,16.348 l -10e-4,10e-4 c 0.083,0.014 0.171,0.009 0.255,0.022 v 13.543 c 0,1.366 1.108,2.474 2.475,2.474 1.367,0 2.475,-1.108 2.475,-2.474 v -13.544 c 6.766,-1.056 11.919,-6.501 11.919,-16.37 z"
   id="path18"
   inkscape:connector-curvature="0" />
	</g>
	<g
   id="g24">
		<path
   style="fill:#d6eb76"
   d="m 90.888,288.801 c 0,-7.409 -5.913,-36.301 -9.653,-36.301 -0.213,0 -0.433,0.118 -0.659,0.297 -0.078,0.061 -0.158,0.157 -0.238,0.238 -0.149,0.153 -0.298,0.329 -0.45,0.548 -0.099,0.14 -0.196,0.289 -0.294,0.454 -0.14,0.234 -0.281,0.499 -0.422,0.779 -0.103,0.202 -0.205,0.389 -0.308,0.614 -0.015,0.033 -0.029,0.057 -0.046,0.091 0.001,0.002 0.003,0.006 0.003,0.006 -3.435,7.588 -7.241,27.33 -7.241,33.274 0,6.538 3.369,10.192 7.824,10.963 h -10e-4 c 0.056,0.01 0.115,0.006 0.171,0.015 v 9.082 c 0,0.916 0.743,1.659 1.66,1.659 0.917,0 1.66,-0.743 1.66,-1.659 v -9.082 c 4.538,-0.709 7.994,-4.36 7.994,-10.978 z"
   id="path22"
   inkscape:connector-curvature="0" />
	</g>
	<g
   id="g28">
		<path
   style="fill:#cce16b"
   d="M 8.157,319.849 C 36.534,430.319 136.676,512 256,512 372.85,512 471.344,433.686 502.025,326.699 398.391,322.678 122.582,316.706 8.157,319.849 Z"
   id="path26"
   inkscape:connector-curvature="0" />
	</g>
	<g
   id="g32">
		<path
   style="fill:#cce16b"
   d="m 47.665,315.897 c -0.605,0 -1.178,0.119 -1.726,0.292 -1.737,-2.497 -4.618,-4.139 -7.891,-4.139 -3.272,0 -6.154,1.642 -7.891,4.139 -0.548,-0.173 -1.12,-0.292 -1.726,-0.292 -3.187,0 -5.77,2.583 -5.77,5.77 h 30.773 c 0.001,-3.187 -2.582,-5.77 -5.769,-5.77 z"
   id="path30"
   inkscape:connector-curvature="0" />
	</g>
	<g
   id="g36">
		<path
   style="fill:#cce16b"
   d="m 471.638,328 c 0,-5.422 -4.396,-9.818 -9.818,-9.818 -0.818,0 -1.601,0.129 -2.361,0.318 -2.562,-2.767 -6.194,-4.526 -10.262,-4.526 -7.746,0 -14.025,6.279 -14.025,14.025 h 36.466 z"
   id="path34"
   inkscape:connector-curvature="0" />
	</g>
	<g
   id="g40">
		<polygon
   style="fill:#fffcec"
   points="128.001,235.2 176,259.2 176,328 88,328 88,259.2 "
   id="polygon38" />
	</g>
	<g
   style="opacity:0.25"
   id="g44">
		<polygon
   style="fill:#ff8562"
   points="176,276.897 176,262.904 150.621,247.676 130.657,237.694 88,263.289 88,277.281 132.32,250.688 "
   id="polygon42" />
	</g>
	<g
   id="g50">
		<g
   id="g48">
			<polygon
   style="fill:#ff8562"
   points="81.234,258.855 132.32,228.203 183.406,258.855 177.234,269.145 132.32,242.195 87.406,269.145 "
   id="polygon46" />
		</g>
	</g>
	<g
   id="g54">
		<polygon
   style="fill:#fffcec"
   points="176,328 312,328 312,237.25 216,189 176,214.25 "
   id="polygon52" />
	</g>
	<g
   style="opacity:0.25"
   id="g58">
		<polygon
   style="fill:#ff8562"
   points="312,252.5 312,238.875 215.672,187.003 176,213.451 176,227.873 216.328,200.987 "
   id="polygon56" />
	</g>
	<g
   id="g62">
		<path
   style="fill:#ffeb97"
   d="m 300.152,130.182 c -2.289,0 -4.453,0.451 -6.526,1.104 -6.568,-9.442 -17.464,-15.65 -29.838,-15.65 -12.373,0 -23.269,6.208 -29.838,15.65 -2.073,-0.654 -4.237,-1.104 -6.526,-1.104 -12.05,0 -21.818,9.768 -21.818,21.818 H 321.97 c 0,-12.05 -9.768,-21.818 -21.818,-21.818 z"
   id="path60"
   inkscape:connector-curvature="0" />
	</g>
	<g
   id="g66">
		<path
   style="fill:#fff1a9"
   d="m 444.306,142.909 c -1.431,0 -2.783,0.282 -4.079,0.69 -4.105,-5.901 -10.915,-9.781 -18.648,-9.781 -7.733,0 -14.543,3.88 -18.648,9.781 -1.296,-0.409 -2.648,-0.69 -4.079,-0.69 -7.531,0 -13.636,6.105 -13.636,13.636 h 72.726 c 10e-4,-7.531 -6.105,-13.636 -13.636,-13.636 z"
   id="path64"
   inkscape:connector-curvature="0" />
	</g>
	<g
   id="g70">
		<path
   style="fill:#fff1a9"
   d="m 228,108 c 0,-15.464 -12.536,-28 -28,-28 -2.334,0 -4.565,0.369 -6.733,0.907 C 185.961,73.017 175.602,68 164,68 c -22.091,0 -40,17.909 -40,40 z"
   id="path68"
   inkscape:connector-curvature="0" />
	</g>
	<g
   id="g74">
		<path
   style="fill:#fff1a9"
   d="m 262.46,88 c 0,-9.657 -7.828,-17.485 -17.485,-17.485 -1.457,0 -2.851,0.231 -4.204,0.567 -4.562,-4.927 -11.031,-8.06 -18.276,-8.06 -13.795,0 -24.978,11.183 -24.978,24.978 z"
   id="path72"
   inkscape:connector-curvature="0" />
	</g>
	<g
   id="g78">
		<path
   style="fill:#fff1a9"
   d="m 359.366,75.511 c 0,-8.045 -6.521,-14.566 -14.566,-14.566 -1.214,0 -2.375,0.192 -3.503,0.472 -3.801,-4.105 -9.19,-6.715 -15.225,-6.715 -11.492,0 -20.809,9.316 -20.809,20.809 z"
   id="path76"
   inkscape:connector-curvature="0" />
	</g>
	<g
   id="g82">
		<path
   style="fill:#fff1a9"
   d="m 415.576,145.182 c 0,-6.323 -5.126,-11.449 -11.449,-11.449 -0.954,0 -1.867,0.151 -2.753,0.371 -2.987,-3.226 -7.223,-5.277 -11.967,-5.277 -9.033,0 -16.355,7.322 -16.355,16.355 z"
   id="path80"
   inkscape:connector-curvature="0" />
	</g>
	<g
   id="g86">
		<path
   style="fill:#ffeb97"
   d="m 87.378,164.489 c 0,-9.657 7.828,-17.485 17.485,-17.485 1.457,0 2.851,0.231 4.204,0.567 4.562,-4.927 11.031,-8.06 18.276,-8.06 13.795,0 24.978,11.183 24.978,24.978 z"
   id="path84"
   inkscape:connector-curvature="0" />
	</g>
	<g
   id="g90">
		<path
   style="fill:#ffeb97"
   d="m 281.828,134.708 c 0,-8.779 7.117,-15.895 15.895,-15.895 1.325,0 2.592,0.21 3.822,0.515 4.148,-4.479 10.029,-7.327 16.615,-7.327 12.541,0 22.708,10.167 22.708,22.708 h -59.04 z"
   id="path88"
   inkscape:connector-curvature="0" />
	</g>
	<g
   id="g98">
		<g
   id="g96">
			<g
   id="g94">
				<polygon
   style="fill:#ff8562"
   points="164.672,212.393 215.672,178.393 322.844,236.104 317.156,246.667 216.328,192.378 171.328,222.378 "
   id="polygon92" />
			</g>
		</g>
	</g>
	<g
   id="g102">
		<rect
   x="202.02499"
   y="278.00699"
   style="fill:#bf9672"
   width="31.315001"
   height="49.993"
   id="rect100" />
	</g>
	<g
   id="g116">
		<g
   id="g106">
			<rect
   x="197.68201"
   y="239.25"
   style="fill:#63a0b5"
   width="40"
   height="26.5"
   id="rect104" />
		</g>
		<g
   id="g110">
			<path
   style="fill:#4185a6"
   d="m 239.68,267.75 h -44 v -30.5 h 44 z m -40,-4 h 36 v -22.5 h -36 z"
   id="path108"
   inkscape:connector-curvature="0" />
		</g>
		<g
   id="g114">
			<rect
   x="215.67999"
   y="239.25"
   style="fill:#4185a6"
   width="4"
   height="26.5"
   id="rect112" />
		</g>
	</g>
	<g
   id="g130">
		<g
   id="g120">
			<rect
   x="250.017"
   y="239.25"
   style="fill:#63a0b5"
   width="40"
   height="26.5"
   id="rect118" />
		</g>
		<g
   id="g124">
			<path
   style="fill:#4185a6"
   d="m 292.016,267.75 h -44 v -30.5 h 44 z m -40,-4 h 36 v -22.5 h -36 z"
   id="path122"
   inkscape:connector-curvature="0" />
		</g>
		<g
   id="g128">
			<rect
   x="268.01599"
   y="239.25"
   style="fill:#4185a6"
   width="4"
   height="26.5"
   id="rect126" />
		</g>
	</g>
	<g
   id="g144">
		<g
   id="g134">
			<rect
   x="250.017"
   y="280"
   style="fill:#63a0b5"
   width="40"
   height="26.5"
   id="rect132" />
		</g>
		<g
   id="g138">
			<path
   style="fill:#4185a6"
   d="m 292.016,308.5 h -44 V 278 h 44 z m -40,-4 h 36 V 282 h -36 z"
   id="path136"
   inkscape:connector-curvature="0" />
		</g>
		<g
   id="g142">
			<rect
   x="268.01599"
   y="280"
   style="fill:#4185a6"
   width="4"
   height="26.5"
   id="rect140" />
		</g>
	</g>
	<g
   id="g158">
		<g
   id="g148">
			<rect
   x="112.322"
   y="280"
   style="fill:#63a0b5"
   width="40"
   height="26.5"
   id="rect146" />
		</g>
		<g
   id="g152">
			<path
   style="fill:#4185a6"
   d="m 154.32,308.5 h -44 V 278 h 44 z m -40,-4 h 36 V 282 h -36 z"
   id="path150"
   inkscape:connector-curvature="0" />
		</g>
		<g
   id="g156">
			<rect
   x="130.32001"
   y="280"
   style="fill:#4185a6"
   width="4"
   height="26.5"
   id="rect154" />
		</g>
	</g>
	<g
   id="g174">
		<g
   id="g164">
			<g
   id="g162">
				<path
   style="fill:#828240"
   d="m 369.446,329.651 c -2.321,0 -4.2,-1.879 -4.2,-4.197 v -45.205 c 0,-2.318 1.879,-4.197 4.2,-4.197 2.321,0 4.2,1.879 4.2,4.197 v 45.205 c 0,2.317 -1.879,4.197 -4.2,4.197 z"
   id="path160"
   inkscape:connector-curvature="0" />
			</g>
		</g>
		<g
   id="g168">
			<path
   style="fill:#69be5d"
   d="m 399.225,268.525 c 0,22.854 -13.333,34.326 -29.78,34.326 -16.447,0 -29.78,-11.472 -29.78,-34.326 0,-22.854 18.242,-111.98 29.78,-111.98 11.538,0 29.78,89.126 29.78,111.98 z"
   id="path166"
   inkscape:connector-curvature="0" />
		</g>
		<g
   id="g172">
			<path
   style="fill:#9dc85c"
   d="m 369.445,156.545 c -2.285,0 -4.834,3.534 -7.452,9.318 9.412,14.255 21.589,84.684 21.589,104.247 0,19.112 -8.499,29.872 -19.783,32.236 1.831,0.317 3.711,0.506 5.645,0.506 16.447,0 29.78,-11.472 29.78,-34.326 0.001,-22.855 -18.242,-111.981 -29.779,-111.981 z"
   id="path170"
   inkscape:connector-curvature="0" />
		</g>
	</g>
	<g
   id="g190">
		<g
   id="g180">
			<g
   id="g178">
				<path
   style="fill:#828240"
   d="m 413.214,329.651 c -2.321,0 -4.2,-1.879 -4.2,-4.197 v -45.205 c 0,-2.318 1.879,-4.197 4.2,-4.197 2.321,0 4.2,1.879 4.2,4.197 v 45.205 c 0,2.317 -1.879,4.197 -4.2,4.197 z"
   id="path176"
   inkscape:connector-curvature="0" />
			</g>
		</g>
		<g
   id="g184">
			<path
   style="fill:#69be5d"
   d="m 437.637,274.698 c 0,18.744 -10.935,28.153 -24.424,28.153 -13.489,0 -24.424,-9.409 -24.424,-28.153 0,-18.744 14.962,-91.843 24.424,-91.843 9.462,0 24.424,73.099 24.424,91.843 z"
   id="path182"
   inkscape:connector-curvature="0" />
		</g>
		<g
   id="g188">
			<path
   style="fill:#9dc85c"
   d="m 413.213,182.855 c -1.874,0 -3.965,2.898 -6.112,7.642 7.72,11.691 17.707,69.455 17.707,85.5 0,15.675 -6.97,24.5 -16.225,26.439 1.502,0.26 3.044,0.415 4.63,0.415 13.489,0 24.425,-9.409 24.425,-28.153 -10e-4,-18.744 -14.963,-91.843 -24.425,-91.843 z"
   id="path186"
   inkscape:connector-curvature="0" />
		</g>
	</g>
	<g
   id="g194">
		<path
   style="fill:#d6eb76"
   d="m 490.375,283.841 c 0,-9.101 -7.264,-44.591 -11.858,-44.591 -0.261,0 -0.532,0.145 -0.809,0.364 -0.096,0.075 -0.194,0.193 -0.292,0.293 -0.183,0.188 -0.366,0.404 -0.552,0.673 -0.121,0.172 -0.24,0.355 -0.362,0.557 -0.172,0.287 -0.345,0.613 -0.519,0.957 -0.127,0.249 -0.251,0.478 -0.378,0.754 -0.018,0.041 -0.036,0.07 -0.056,0.112 l 0.005,0.009 c -4.221,9.318 -8.896,33.57 -8.896,40.871 0,8.031 4.138,12.52 9.611,13.467 h -0.001 c 0.069,0.012 0.141,0.008 0.21,0.019 v 11.156 c 0,1.125 0.913,2.038 2.039,2.038 1.126,0 2.039,-0.912 2.039,-2.038 v -11.157 c 5.574,-0.87 9.819,-5.355 9.819,-13.484 z"
   id="path192"
   inkscape:connector-curvature="0" />
	</g>
	<g
   id="g198">
		<path
   style="fill:#d6eb76"
   d="m 76.97,286.617 c 0,-8.154 -6.508,-39.95 -10.624,-39.95 -0.234,0 -0.477,0.13 -0.725,0.326 -0.086,0.068 -0.174,0.172 -0.262,0.262 -0.164,0.169 -0.328,0.362 -0.495,0.603 -0.109,0.154 -0.215,0.318 -0.324,0.499 -0.154,0.257 -0.309,0.549 -0.465,0.858 -0.113,0.223 -0.225,0.428 -0.339,0.676 -0.016,0.036 -0.032,0.063 -0.05,0.1 l 0.005,0.008 c -3.782,8.348 -7.97,30.076 -7.97,36.618 0,7.196 3.707,11.217 8.611,12.065 -10e-4,0 0,0 -10e-4,0 0.062,0.011 0.126,0.007 0.188,0.017 v 9.995 c 0,1.008 0.818,1.826 1.827,1.826 1.009,0 1.827,-0.818 1.827,-1.826 v -9.996 c 4.994,-0.779 8.797,-4.798 8.797,-12.081 z"
   id="path196"
   inkscape:connector-curvature="0" />
	</g>
	<g
   id="g202">
		<path
   style="fill:#d6eb76"
   d="m 42.028,291.86 c 0,-6.365 -5.08,-31.187 -8.293,-31.187 -0.183,0 -0.372,0.101 -0.566,0.255 -0.067,0.053 -0.136,0.135 -0.204,0.205 -0.128,0.132 -0.256,0.283 -0.386,0.471 -0.085,0.12 -0.168,0.248 -0.253,0.39 -0.12,0.201 -0.241,0.429 -0.363,0.669 -0.089,0.174 -0.176,0.334 -0.264,0.528 -0.013,0.028 -0.025,0.049 -0.039,0.078 0.001,0.002 0.003,0.005 0.003,0.005 -2.951,6.519 -6.221,23.48 -6.221,28.587 0,5.617 2.894,8.757 6.722,9.419 h -0.001 c 0.048,0.008 0.099,0.005 0.147,0.013 v 7.803 c 0,0.787 0.638,1.425 1.426,1.425 0.788,0 1.426,-0.638 1.426,-1.425 v -7.803 c 3.898,-0.61 6.866,-3.747 6.866,-9.433 z"
   id="path200"
   inkscape:connector-curvature="0" />
	</g>
	<g
   id="g206">
		<path
   style="fill:#d6eb76"
   d="m 471.638,279.705 c 0,-10.511 -8.389,-51.502 -13.696,-51.502 -0.302,0 -0.615,0.167 -0.934,0.421 -0.111,0.087 -0.224,0.222 -0.337,0.338 -0.211,0.218 -0.423,0.467 -0.638,0.777 -0.14,0.198 -0.278,0.41 -0.418,0.644 -0.198,0.331 -0.399,0.708 -0.599,1.106 -0.146,0.287 -0.29,0.552 -0.436,0.871 -0.021,0.047 -0.042,0.081 -0.065,0.129 0.002,0.003 0.004,0.008 0.004,0.008 -4.873,10.765 -10.273,38.775 -10.273,47.209 0,9.276 4.779,14.461 11.101,15.554 l -10e-4,0.001 c 0.079,0.014 0.163,0.009 0.242,0.021 v 12.885 c 0,1.3 1.054,2.354 2.355,2.354 1.301,0 2.355,-1.054 2.355,-2.354 v -12.886 c 6.438,-1.006 11.34,-6.186 11.34,-15.576 z"
   id="path204"
   inkscape:connector-curvature="0" />
	</g>
	<g
   id="g210">
		<path
   style="fill:#d0d75b"
   d="M 25.441,367.033 C 66.779,452.789 154.422,512 256,512 c 104.79,0 194.779,-63.004 234.375,-153.168 -117.143,-9.37 -369.581,-5.279 -464.934,8.201 z"
   id="path208"
   inkscape:connector-curvature="0" />
	</g>
	<g
   id="g214">
		<path
   style="fill:#d8c34a"
   d="M 426.797,446.582 C 343.36,424.822 172.093,394.434 49.102,406.315 95.599,470.296 170.844,512 256,512 c 65.668,0 125.513,-24.754 170.797,-65.418 z"
   id="path212"
   inkscape:connector-curvature="0" />
	</g>
	<g
   id="g218">
		<path
   style="fill:#d0b459"
   d="M 110.597,466.46 C 151.861,495.13 201.914,512 256,512 c 55.782,0 107.324,-17.911 149.348,-48.213 -81.094,-5.316 -213.366,-8.648 -294.751,2.673 z"
   id="path216"
   inkscape:connector-curvature="0" />
	</g>
	<g
   id="g222">
		<rect
   x="81.234001"
   y="321.66699"
   style="fill:#ab8240"
   width="237.53101"
   height="6.3330002"
   id="rect220" />
	</g>
	<g
   id="g226">
		<circle
   style="fill:#d0d75b"
   cx="183.40601"
   cy="426.20999"
   r="6.6669998"
   id="circle224" />
	</g>
	<g
   id="g230">
		<circle
   style="fill:#d8c34a"
   cx="211.01601"
   cy="482.83301"
   r="6.6669998"
   id="circle228" />
	</g>
	<g
   id="g234">
		<circle
   style="fill:#d8c34a"
   cx="299.271"
   cy="489.5"
   r="6.6669998"
   id="circle232" />
	</g>
	<g
   id="g238">
		<circle
   style="fill:#d0b459"
   cx="329.51001"
   cy="446.20999"
   r="6.6669998"
   id="circle236" />
	</g>
	<g
   id="g242">
		<circle
   style="fill:#d0d75b"
   cx="263.78799"
   cy="478.77399"
   r="6.6669998"
   id="circle240" />
	</g>
	<g
   id="g246">
		<circle
   style="fill:#d0d75b"
   cx="285.93799"
   cy="437.33301"
   r="6.6669998"
   id="circle244" />
	</g>
	<g
   id="g250">
		<circle
   style="fill:#d0b459"
   cx="237.94901"
   cy="439.543"
   r="6.6669998"
   id="circle248" />
	</g>
	<g
   id="g254">
		<circle
   style="fill:#cce16b"
   cx="171.339"
   cy="386.66699"
   r="4"
   id="circle252" />
	</g>
	<g
   id="g258">
		<circle
   style="fill:#cce16b"
   cx="296.60501"
   cy="400"
   r="4"
   id="circle256" />
	</g>
	<g
   id="g262">
		<circle
   style="fill:#cce16b"
   cx="384.60901"
   cy="417.33301"
   r="4"
   id="circle260" />
	</g>
	<g
   id="g266">
		<circle
   style="fill:#d8c34a"
   cx="357.99301"
   cy="378.66699"
   r="4"
   id="circle264" />
	</g>
	<g
   id="g270">
		<circle
   style="fill:#d8c34a"
   cx="250.017"
   cy="370.66699"
   r="4"
   id="circle268" />
	</g>
	<g
   id="g274">
		<circle
   style="fill:#d0b459"
   cx="132"
   cy="439.543"
   r="6.6669998"
   id="circle272" />
	</g>
	<g
   id="g278">
		<path
   style="fill:#9dc85c"
   d="m 104.267,317.591 c -1.582,0 -3.077,0.311 -4.509,0.763 C 95.22,311.83 87.691,307.54 79.141,307.54 c -8.55,0 -16.078,4.289 -20.617,10.814 -1.433,-0.452 -2.928,-0.763 -4.509,-0.763 -8.326,0 -15.076,6.75 -15.076,15.076 h 80.403 c 0.001,-8.326 -6.749,-15.076 -15.075,-15.076 z"
   id="path276"
   inkscape:connector-curvature="0" />
	</g>
	<g
   id="g282">
		<path
   style="fill:#9dc85c"
   d="m 132.322,332.593 c 0,-7.478 6.062,-13.54 13.54,-13.54 1.129,0 2.208,0.178 3.256,0.439 3.533,-3.815 8.543,-6.242 14.153,-6.242 10.683,0 19.343,8.66 19.343,19.343 z"
   id="path280"
   inkscape:connector-curvature="0" />
	</g>
	<g
   id="g286">
		<path
   style="fill:#69be5d"
   d="m 94.601,317.591 c -1.582,0 -3.077,0.312 -4.509,0.763 -3.652,-5.25 -9.284,-8.926 -15.783,-10.21 -6.5,1.285 -12.131,4.96 -15.783,10.21 -1.433,-0.452 -2.928,-0.763 -4.509,-0.763 -8.326,0 -15.076,6.75 -15.076,15.076 h 70.736 c -0.001,-8.327 -6.75,-15.076 -15.076,-15.076 z"
   id="path284"
   inkscape:connector-curvature="0" />
	</g>
	<g
   id="g290">
		<path
   style="fill:#69be5d"
   d="m 159.887,313.613 c -4.22,0.762 -7.968,2.853 -10.769,5.878 -1.048,-0.26 -2.127,-0.438 -3.256,-0.438 -7.478,0 -13.54,6.062 -13.54,13.54 h 43.303 c 0,-9.448 -6.783,-17.287 -15.738,-18.98 z"
   id="path288"
   inkscape:connector-curvature="0" />
	</g>
	<g
   id="g294">
		<path
   style="fill:#9dc85c"
   d="m 390.051,332.593 c 0,-8.674 7.031,-15.705 15.705,-15.705 1.309,0 2.561,0.207 3.776,0.509 4.098,-4.426 9.909,-7.24 16.416,-7.24 12.391,0 22.436,10.045 22.436,22.436 z"
   id="path292"
   inkscape:connector-curvature="0" />
	</g>
	<g
   id="g298">
		<path
   style="fill:#cce16b"
   d="m 322.844,324.603 c 0,-5.422 4.396,-9.818 9.818,-9.818 0.818,0 1.601,0.129 2.361,0.318 2.562,-2.767 6.194,-4.526 10.262,-4.526 7.746,0 14.025,6.279 14.025,14.025 h -36.466 z"
   id="path296"
   inkscape:connector-curvature="0" />
	</g>
	<g
   id="g302">
		<path
   style="fill:#69be5d"
   d="m 422.023,310.578 c -4.895,0.884 -9.242,3.309 -12.491,6.818 -1.216,-0.301 -2.468,-0.509 -3.776,-0.509 -8.674,0 -15.705,7.031 -15.705,15.705 h 50.227 c 0,-10.958 -7.867,-20.051 -18.255,-22.014 z"
   id="path300"
   inkscape:connector-curvature="0" />
	</g>
</g>
<g
   id="g306">
</g>
<g
   id="g308">
</g>
<g
   id="g310">
</g>
<g
   id="g312">
</g>
<g
   id="g314">
</g>
<g
   id="g316">
</g>
<g
   id="g318">
</g>
<g
   id="g320">
</g>
<g
   id="g322">
</g>
<g
   id="g324">
</g>
<g
   id="g326">
</g>
<g
   id="g328">
</g>
<g
   id="g330">
</g>
<g
   id="g332">
</g>
<g
   id="g334">
</g>
</svg>